<?xml version="1.0" standalone="no"?>
<!DOCTYPE svg PUBLIC "-//W3C//DTD SVG 20010904//EN"
 "http://www.w3.org/TR/2001/REC-SVG-20010904/DTD/svg10.dtd">
<svg version="1.0" xmlns="http://www.w3.org/2000/svg"
 width="1024.000000pt" height="1024.000000pt" viewBox="0 0 1024.000000 1024.000000"
 preserveAspectRatio="xMidYMid meet">
<metadata>
Created by potrace 1.11, written by Peter Selinger 2001-2013
</metadata>
<g transform="translate(0.000000,1024.000000) scale(0.100000,-0.100000)"
fill="#000000" stroke="none">
<path d="M2460 9559 c-567 -35 -1115 -333 -1455 -789 -191 -257 -301 -502
-371 -825 -27 -123 -28 -143 -28 -380 0 -237 1 -257 28 -380 71 -330 194 -596
393 -853 103 -133 168 -198 311 -313 143 -116 198 -152 347 -230 189 -99 412
-172 635 -206 100 -15 193 -17 705 -18 660 0 624 -4 682 72 23 30 28 46 28 93
0 47 -5 63 -28 93 -57 75 -20 71 -712 77 l-620 6 -124 28 c-213 47 -392 123
-571 243 -367 245 -624 619 -710 1035 -118 570 49 1128 457 1534 167 166 340
280 562 370 336 137 769 151 1116 38 521 -171 934 -591 1089 -1107 75 -246 70
-131 73 -1814 l4 -1513 -823 0 c-870 0 -1046 -6 -1223 -40 -279 -54 -590 -191
-810 -356 -410 -307 -670 -716 -781 -1229 -27 -123 -28 -143 -28 -380 0 -237
1 -257 28 -380 75 -348 209 -626 433 -902 295 -364 765 -627 1248 -698 146
-22 424 -22 570 0 485 71 953 334 1247 699 263 326 418 692 457 1075 17 160
14 883 -3 924 -28 67 -119 116 -182 98 -57 -17 -85 -35 -107 -70 -22 -35 -22
-44 -28 -481 -7 -492 -11 -536 -75 -747 -136 -453 -493 -857 -922 -1042 -122
-54 -221 -85 -348 -112 -96 -21 -135 -24 -329 -23 -202 0 -230 2 -344 28 -155
34 -235 63 -386 136 -776 379 -1134 1295 -819 2097 128 326 344 592 639 789
183 121 364 197 593 246 l107 23 2725 0 2725 0 128 -28 c318 -69 579 -210 810
-436 189 -184 311 -366 401 -594 79 -203 110 -370 110 -602 0 -221 -30 -394
-101 -580 -95 -250 -212 -424 -419 -625 -136 -131 -258 -218 -419 -295 -143
-69 -226 -98 -376 -131 -114 -26 -142 -28 -344 -28 -194 -1 -233 2 -329 23
-127 27 -226 58 -349 112 -428 185 -785 589 -921 1042 -64 211 -68 255 -75
747 -6 438 -6 446 -28 481 -27 42 -89 74 -144 73 -55 -2 -115 -40 -139 -89
-19 -39 -20 -62 -20 -437 0 -429 7 -541 47 -718 70 -312 203 -585 419 -855
291 -363 764 -629 1249 -700 146 -22 424 -22 570 0 366 54 716 211 1007 454
298 250 530 611 634 990 63 232 69 273 69 536 0 263 -6 304 -69 536 -63 229
-177 461 -326 661 -269 363 -660 624 -1110 742 -224 59 -225 59 -1233 63
l-928 5 4 1511 c3 1683 -2 1568 73 1814 136 453 493 857 921 1042 123 54 222
85 349 112 96 21 135 24 329 23 202 0 230 -2 344 -28 150 -33 233 -62 376
-131 163 -78 283 -163 423 -299 136 -133 224 -245 307 -390 324 -572 274
-1292 -125 -1816 -92 -120 -281 -298 -405 -380 -186 -123 -362 -198 -576 -246
l-124 -28 -605 -6 c-650 -5 -635 -4 -681 -56 -52 -60 -61 -126 -26 -189 30
-53 76 -82 143 -90 30 -4 296 -5 592 -2 432 4 557 8 642 21 523 83 992 361
1300 771 218 290 349 604 395 950 23 172 16 473 -14 615 -72 334 -186 593
-371 842 -270 364 -659 624 -1110 742 -298 78 -681 78 -980 0 -410 -107 -798
-352 -1044 -659 -216 -270 -349 -543 -419 -855 -44 -196 -47 -272 -47 -1206
l0 -884 -510 0 -510 0 0 884 c0 548 -4 923 -11 987 -30 301 -147 627 -316 884
-83 126 -210 281 -293 358 -424 393 -951 582 -1520 546z m3160 -4419 l0 -420
-510 0 -510 0 0 420 0 420 510 0 510 0 0 -420z"/>
</g>
</svg>
